<?xml version="1.0" encoding="UTF-8"?>
<svg version="1.1" xmlns="http://www.w3.org/2000/svg" width="281" height="281">
<path d="M0 0 C0.69474426 -0.00067474 1.38948853 -0.00134949 2.10528564 -0.00204468 C12.75675371 0.01439325 22.7616159 0.59411182 33.125 3.25 C33.77404297 3.40033691 34.42308594 3.55067383 35.09179688 3.70556641 C53.93895759 8.0980678 72.14580747 17.01759217 87.125 29.25 C87.71603516 29.7258252 88.30707031 30.20165039 88.91601562 30.69189453 C118.3650246 54.56673787 136.30958652 87.68682818 141.125 125.25 C141.36190838 130.20569261 141.3706842 135.16417426 141.375 140.125 C141.37567474 140.81974426 141.37634949 141.51448853 141.37704468 142.23028564 C141.36060675 152.88175371 140.78088818 162.8866159 138.125 173.25 C137.89949463 174.22356445 137.89949463 174.22356445 137.66943359 175.21679688 C133.2769322 194.06395759 124.35740783 212.27080747 112.125 227.25 C111.6491748 227.84103516 111.17334961 228.43207031 110.68310547 229.04101562 C86.80826213 258.4900246 53.68817182 276.43458652 16.125 281.25 C11.16930739 281.48690838 6.21082574 281.4956842 1.25 281.5 C0.20788361 281.50101212 0.20788361 281.50101212 -0.85528564 281.50204468 C-11.50675371 281.48560675 -21.5116159 280.90588818 -31.875 278.25 C-32.52404297 278.09966309 -33.17308594 277.94932617 -33.84179688 277.79443359 C-52.68895759 273.4019322 -70.89580747 264.48240783 -85.875 252.25 C-86.46603516 251.7741748 -87.05707031 251.29834961 -87.66601562 250.80810547 C-117.1150246 226.93326213 -135.05958652 193.81317182 -139.875 156.25 C-140.11190838 151.29430739 -140.1206842 146.33582574 -140.125 141.375 C-140.12567474 140.68025574 -140.12634949 139.98551147 -140.12704468 139.26971436 C-140.11060675 128.61824629 -139.53088818 118.6133841 -136.875 108.25 C-136.72466309 107.60095703 -136.57432617 106.95191406 -136.41943359 106.28320312 C-132.0269322 87.43604241 -123.10740783 69.22919253 -110.875 54.25 C-110.3991748 53.65896484 -109.92334961 53.06792969 -109.43310547 52.45898438 C-82.31855181 19.01387553 -43.06745425 0.03746763 0 0 Z " fill="#F5F4F5" transform="translate(139.875,-0.24999999999999997)"/>
<path d="M0 0 C1.86355385 -0.00922989 1.86355385 -0.00922989 3.76475525 -0.01864624 C5.12515994 -0.00483615 6.48555743 0.00969887 7.84594727 0.02490234 C9.24780609 0.02728914 10.64966816 0.02819159 12.05152893 0.02767944 C14.99646938 0.03081045 17.94092409 0.04738091 20.88574219 0.07421875 C24.62763767 0.1079177 28.3689926 0.11585525 32.111022 0.11432838 C35.01189675 0.11487776 37.91265742 0.12593917 40.81349373 0.14033127 C42.1907369 0.14662339 43.56799283 0.15062003 44.94524956 0.15211868 C66.83213413 0.20194054 66.83213413 0.20194054 71.60031223 3.66710472 C73.5492035 6.24579555 73.35236719 8.09083336 73.35580444 11.30426025 C73.36426392 12.51832047 73.37272339 13.73238068 73.38143921 14.98323059 C73.37560601 16.33078137 73.36946148 17.67833082 73.36303711 19.02587891 C73.36710183 20.44352117 73.37244315 21.86116026 73.37896729 23.27879333 C73.39266371 27.13234733 73.38733144 30.9856608 73.37783003 34.83921909 C73.3702395 38.87318639 73.3772779 42.90713297 73.38198853 46.94110107 C73.38745036 53.72021176 73.3802459 60.49922449 73.3659668 67.27832031 C73.34966573 75.10758094 73.35490846 82.93660689 73.37144601 90.76586175 C73.38508018 97.4904125 73.38697033 104.21489277 73.37913001 110.93945289 C73.37446069 114.95434647 73.37380764 118.96912997 73.38373947 122.98401642 C73.39243405 126.76304096 73.38634207 130.54176471 73.3690567 134.32075691 C73.36510397 135.70461338 73.36620507 137.08849535 73.3728447 138.47234154 C73.43040161 151.6920505 73.43040161 151.6920505 69.97485352 157.48583984 C67.3018736 158.8223298 65.25760152 158.61788614 62.26322937 158.62628174 C61.0476535 158.63199188 59.83207764 158.63770203 58.57966614 158.64358521 C57.22531138 158.64483062 55.87095651 158.64595571 54.51660156 158.64697266 C53.09586457 158.65159999 51.67512882 158.65662453 50.25439453 158.66201782 C46.38859853 158.67515286 42.52281991 158.68158903 38.65700507 158.68602848 C36.24246788 158.68895769 33.82793545 158.69306223 31.41340065 158.69753265 C23.86087302 158.71121107 16.30835627 158.72087579 8.75581712 158.72473454 C0.03397075 158.729215 -8.68771888 158.74676079 -17.40951759 158.77573514 C-24.14843706 158.79734593 -30.88731242 158.80743852 -37.62626618 158.80877566 C-41.65231133 158.80982422 -45.67820921 158.81574242 -49.70421791 158.83359528 C-53.49221882 158.85006542 -57.2799616 158.85223673 -61.06798553 158.84345627 C-62.45753101 158.84268529 -63.8470903 158.84703661 -65.23660088 158.85691452 C-67.13521559 158.86961884 -69.03393384 158.861971 -70.93257141 158.85333252 C-72.5256813 158.85553236 -72.5256813 158.85553236 -74.15097523 158.85777664 C-77.75213081 158.39176326 -80.43967813 157.0713082 -83.02514648 154.48583984 C-83.13602352 152.13428048 -83.18252653 149.81180637 -83.1862793 147.45922852 C-83.1912442 146.7242363 -83.19620911 145.98924408 -83.20132446 145.23197937 C-83.21598417 142.7892464 -83.22275503 140.34657841 -83.22827148 137.90380859 C-83.23402064 136.21088152 -83.2397784 134.51795448 -83.24554443 132.82502747 C-83.25606583 129.26982315 -83.26190075 125.71464153 -83.26538086 122.15942383 C-83.27086228 117.60283875 -83.29487784 113.04655301 -83.32335281 108.49006176 C-83.34197535 104.99077988 -83.34718463 101.49157007 -83.34871674 97.99224281 C-83.35174562 96.31250691 -83.35978212 94.63277234 -83.37290192 92.95308495 C-83.38995171 90.60203692 -83.38808487 88.25171948 -83.3815918 85.90063477 C-83.39080658 85.20593079 -83.40002136 84.51122681 -83.40951538 83.79547119 C-83.38455074 80.91074622 -83.11824579 78.69312943 -81.9315033 76.05079651 C-79.06592196 73.69839816 -76.83626435 74.00576113 -73.16699219 74.03173828 C-72.4740506 74.03115417 -71.78110901 74.03057007 -71.06716919 74.02996826 C-68.77791149 74.03275392 -66.48995777 74.0638658 -64.20092773 74.09521484 C-62.61338513 74.10267559 -61.02583331 74.10836931 -59.4382782 74.11236572 C-55.26067662 74.12763535 -51.0836317 74.16692803 -46.90625 74.21118164 C-42.64322439 74.25210604 -38.3801088 74.27037065 -34.11694336 74.29052734 C-25.75275567 74.33342152 -17.38902033 74.40168828 -9.02514648 74.48583984 C-9.03513924 73.18371552 -9.03513924 73.18371552 -9.04533386 71.85528564 C-9.10544524 63.67438525 -9.15112102 55.49355903 -9.180583 47.31248856 C-9.19623892 43.1065046 -9.21747568 38.90070314 -9.25146484 34.69482422 C-9.28406119 30.63589433 -9.30200006 26.57713997 -9.30977821 22.51808929 C-9.31532125 20.96952298 -9.32614549 19.42096626 -9.34233665 17.87247467 C-9.36411519 15.70334616 -9.36711333 13.53494291 -9.36572266 11.36572266 C-9.37571541 9.5137326 -9.37571541 9.5137326 -9.38591003 7.62432861 C-8.64917877 1.21508137 -6.18460352 -0.01611041 0 0 Z " fill="#23DAE4" transform="translate(142.025146484375,61.51416015625)"/>
<path d="M0 0 C1.86355385 -0.00922989 1.86355385 -0.00922989 3.76475525 -0.01864624 C5.12515994 -0.00483615 6.48555743 0.00969887 7.84594727 0.02490234 C9.24780609 0.02728914 10.64966816 0.02819159 12.05152893 0.02767944 C14.99646938 0.03081045 17.94092409 0.04738091 20.88574219 0.07421875 C24.62763767 0.1079177 28.3689926 0.11585525 32.111022 0.11432838 C35.01189675 0.11487776 37.91265742 0.12593917 40.81349373 0.14033127 C42.1907369 0.14662339 43.56799283 0.15062003 44.94524956 0.15211868 C66.83213413 0.20194054 66.83213413 0.20194054 71.60031223 3.66710472 C73.5492035 6.24579555 73.35236719 8.09083336 73.35580444 11.30426025 C73.36426392 12.51832047 73.37272339 13.73238068 73.38143921 14.98323059 C73.37560601 16.33078137 73.36946148 17.67833082 73.36303711 19.02587891 C73.36710183 20.44352117 73.37244315 21.86116026 73.37896729 23.27879333 C73.39266371 27.13234733 73.38733144 30.9856608 73.37783003 34.83921909 C73.3702395 38.87318639 73.3772779 42.90713297 73.38198853 46.94110107 C73.38745036 53.72021176 73.3802459 60.49922449 73.3659668 67.27832031 C73.34966573 75.10758094 73.35490846 82.93660689 73.37144601 90.76586175 C73.38508018 97.4904125 73.38697033 104.21489277 73.37913001 110.93945289 C73.37446069 114.95434647 73.37380764 118.96912997 73.38373947 122.98401642 C73.39243405 126.76304096 73.38634207 130.54176471 73.3690567 134.32075691 C73.36510397 135.70461338 73.36620507 137.08849535 73.3728447 138.47234154 C73.43040161 151.6920505 73.43040161 151.6920505 69.97485352 157.48583984 C67.3018736 158.8223298 65.25760152 158.61788614 62.26322937 158.62628174 C61.0476535 158.63199188 59.83207764 158.63770203 58.57966614 158.64358521 C57.22531138 158.64483062 55.87095651 158.64595571 54.51660156 158.64697266 C53.09586457 158.65159999 51.67512882 158.65662453 50.25439453 158.66201782 C46.38859853 158.67515286 42.52281991 158.68158903 38.65700507 158.68602848 C36.24246788 158.68895769 33.82793545 158.69306223 31.41340065 158.69753265 C23.86087302 158.71121107 16.30835627 158.72087579 8.75581712 158.72473454 C0.03397075 158.729215 -8.68771888 158.74676079 -17.40951759 158.77573514 C-24.14843706 158.79734593 -30.88731242 158.80743852 -37.62626618 158.80877566 C-41.65231133 158.80982422 -45.67820921 158.81574242 -49.70421791 158.83359528 C-53.49221882 158.85006542 -57.2799616 158.85223673 -61.06798553 158.84345627 C-62.45753101 158.84268529 -63.8470903 158.84703661 -65.23660088 158.85691452 C-67.13521559 158.86961884 -69.03393384 158.861971 -70.93257141 158.85333252 C-72.5256813 158.85553236 -72.5256813 158.85553236 -74.15097523 158.85777664 C-77.75213081 158.39176326 -80.43967813 157.0713082 -83.02514648 154.48583984 C-83.13602352 152.13428048 -83.18252653 149.81180637 -83.1862793 147.45922852 C-83.1912442 146.7242363 -83.19620911 145.98924408 -83.20132446 145.23197937 C-83.21598417 142.7892464 -83.22275503 140.34657841 -83.22827148 137.90380859 C-83.23402064 136.21088152 -83.2397784 134.51795448 -83.24554443 132.82502747 C-83.25606583 129.26982315 -83.26190075 125.71464153 -83.26538086 122.15942383 C-83.27086228 117.60283875 -83.29487784 113.04655301 -83.32335281 108.49006176 C-83.34197535 104.99077988 -83.34718463 101.49157007 -83.34871674 97.99224281 C-83.35174562 96.31250691 -83.35978212 94.63277234 -83.37290192 92.95308495 C-83.38995171 90.60203692 -83.38808487 88.25171948 -83.3815918 85.90063477 C-83.39080658 85.20593079 -83.40002136 84.51122681 -83.40951538 83.79547119 C-83.38455074 80.91074622 -83.11824579 78.69312943 -81.9315033 76.05079651 C-79.06592196 73.69839816 -76.83626435 74.00576113 -73.16699219 74.03173828 C-72.4740506 74.03115417 -71.78110901 74.03057007 -71.06716919 74.02996826 C-68.77791149 74.03275392 -66.48995777 74.0638658 -64.20092773 74.09521484 C-62.61338513 74.10267559 -61.02583331 74.10836931 -59.4382782 74.11236572 C-55.26067662 74.12763535 -51.0836317 74.16692803 -46.90625 74.21118164 C-42.64322439 74.25210604 -38.3801088 74.27037065 -34.11694336 74.29052734 C-25.75275567 74.33342152 -17.38902033 74.40168828 -9.02514648 74.48583984 C-9.03513924 73.18371552 -9.03513924 73.18371552 -9.04533386 71.85528564 C-9.10544524 63.67438525 -9.15112102 55.49355903 -9.180583 47.31248856 C-9.19623892 43.1065046 -9.21747568 38.90070314 -9.25146484 34.69482422 C-9.28406119 30.63589433 -9.30200006 26.57713997 -9.30977821 22.51808929 C-9.31532125 20.96952298 -9.32614549 19.42096626 -9.34233665 17.87247467 C-9.36411519 15.70334616 -9.36711333 13.53494291 -9.36572266 11.36572266 C-9.37571541 9.5137326 -9.37571541 9.5137326 -9.38591003 7.62432861 C-8.64917877 1.21508137 -6.18460352 -0.01611041 0 0 Z M-5.02514648 5.48583984 C-5.11954627 7.75575871 -5.14256875 10.02865952 -5.13867188 12.30053711 C-5.1388179 13.01269379 -5.13896393 13.72485046 -5.13911438 14.45858765 C-5.13841519 16.82317097 -5.13062254 19.18767646 -5.12280273 21.55224609 C-5.12093858 23.18749448 -5.11951466 24.82274341 -5.11851501 26.45799255 C-5.11468966 30.7701877 -5.10485923 35.08234937 -5.09381104 39.39453125 C-5.08359729 43.7914993 -5.07901747 48.18847274 -5.07397461 52.58544922 C-5.06323698 61.21892815 -5.04616035 69.85237984 -5.02514648 78.48583984 C-5.93747543 78.48361923 -6.84980438 78.48139862 -7.78977966 78.47911072 C-16.36897926 78.45911056 -24.94817107 78.44386712 -33.52738857 78.43402767 C-37.93851652 78.42879915 -42.34962528 78.42170207 -46.76074219 78.41040039 C-51.01415764 78.39957041 -55.26755457 78.39356277 -59.52098274 78.3909626 C-61.14736281 78.38910855 -62.77374182 78.38548832 -64.40011406 78.38010979 C-66.67024841 78.37289786 -68.94030534 78.37184896 -71.21044922 78.37231445 C-72.50506577 78.37009384 -73.79968231 78.36787323 -75.13352966 78.36558533 C-77.91957031 78.15455872 -77.91957031 78.15455872 -79.02514648 79.48583984 C-79.11954627 81.75575871 -79.14256875 84.02865952 -79.13867188 86.30053711 C-79.1388179 87.01269379 -79.13896393 87.72485046 -79.13911438 88.45858765 C-79.13841519 90.82317097 -79.13062254 93.18767646 -79.12280273 95.55224609 C-79.12093858 97.18749448 -79.11951466 98.82274341 -79.11851501 100.45799255 C-79.11468966 104.7701877 -79.10485923 109.08234937 -79.09381104 113.39453125 C-79.08359729 117.7914993 -79.07901747 122.18847274 -79.07397461 126.58544922 C-79.06323698 135.21892815 -79.04616035 143.85237984 -79.02514648 152.48583984 C-76.68153725 152.93948616 -76.68153725 152.93948616 -74.02514648 152.48583984 C-72.16583818 150.05639539 -72.16583818 150.05639539 -70.33935547 147.06445312 C-67.0421864 142.86645857 -64.0163101 141.16315175 -58.70730591 140.47064209 C-51.807671 139.98569378 -44.90858996 140.11814972 -37.99780273 140.22802734 C-35.44095003 140.22864503 -32.88409167 140.2242663 -30.32725525 140.21511841 C-24.30247253 140.20496698 -18.27989776 140.24268733 -12.25558323 140.30478966 C-4.73025113 140.37985303 2.79490514 140.38709598 10.32055664 140.39208984 C17.99991804 140.39818059 25.67874024 140.40933506 33.3578949 140.4694519 C35.1036657 140.48113655 35.1036657 140.48113655 36.88470459 140.49305725 C39.06137897 140.50834784 41.23803041 140.5276096 43.41462708 140.55152893 C44.37192719 140.55763687 45.32922729 140.56374481 46.3155365 140.57003784 C47.14783248 140.5778723 47.98012846 140.58570675 48.83764553 140.59377861 C51.16287595 140.5720398 51.16287595 140.5720398 53.97485352 139.48583984 C55.66144342 132.38347039 56.27344489 125.67937324 56.27783203 118.39233398 C56.29049103 116.80266312 56.29049103 116.80266312 56.30340576 115.18087769 C56.32900097 111.71091214 56.34127826 108.24103129 56.35375977 104.77099609 C56.36994811 102.34866168 56.3871295 99.92633373 56.40525818 97.50401306 C56.45078815 91.15130591 56.48568212 84.79859002 56.51745605 78.44580078 C56.56949048 68.25343808 56.63441088 58.0611697 56.70567131 47.86892509 C56.72851829 44.30862658 56.74477468 40.74834018 56.76039124 37.18800354 C56.77379313 35.01652896 56.78740752 32.84505568 56.80126953 30.67358398 C56.8038829 29.68084976 56.80649628 28.68811554 56.80918884 27.66529846 C56.81608734 26.75848328 56.82298584 25.85166809 56.83009338 24.91737366 C56.8339483 24.12932374 56.83780321 23.34127382 56.84177494 22.52934361 C56.97485352 20.48583984 56.97485352 20.48583984 57.97485352 17.48583984 C59.29823984 16.79963953 60.63435299 16.13797523 61.97485352 15.48583984 C64.04207427 13.88867173 65.99643206 12.19447656 67.97485352 10.48583984 C67.64485352 8.83583984 67.31485352 7.18583984 66.97485352 5.48583984 C53.66115 4.22647422 40.33360916 4.33330522 26.97241211 4.35546875 C23.06042729 4.36089453 19.14855389 4.355463 15.23657227 4.34912109 C12.75610326 4.34978075 10.27563433 4.35105956 7.79516602 4.35302734 C6.03609421 4.349991 6.03609421 4.349991 4.2414856 4.34689331 C3.16881439 4.35004547 2.09614319 4.35319763 0.9909668 4.35644531 C-0.43008865 4.3576387 -0.43008865 4.3576387 -1.87985229 4.3588562 C-4.00716905 4.24649922 -4.00716905 4.24649922 -5.02514648 5.48583984 Z " fill="#0F7B8E" transform="translate(142.025146484375,61.51416015625)"/>
<path d="M0 0 C1.86355385 -0.00922989 1.86355385 -0.00922989 3.76475525 -0.01864624 C5.12515994 -0.00483615 6.48555743 0.00969887 7.84594727 0.02490234 C9.24780609 0.02728914 10.64966816 0.02819159 12.05152893 0.02767944 C14.99646938 0.03081045 17.94092409 0.04738091 20.88574219 0.07421875 C24.62763767 0.1079177 28.3689926 0.11585525 32.111022 0.11432838 C35.01189675 0.11487776 37.91265742 0.12593917 40.81349373 0.14033127 C42.1907369 0.14662339 43.56799283 0.15062003 44.94524956 0.15211868 C66.83213413 0.20194054 66.83213413 0.20194054 71.60031223 3.66710472 C73.5492035 6.24579555 73.35236719 8.09083336 73.35580444 11.30426025 C73.36426392 12.51832047 73.37272339 13.73238068 73.38143921 14.98323059 C73.37560601 16.33078137 73.36946148 17.67833082 73.36303711 19.02587891 C73.36710183 20.44352117 73.37244315 21.86116026 73.37896729 23.27879333 C73.39266371 27.13234733 73.38733144 30.9856608 73.37783003 34.83921909 C73.3702395 38.87318639 73.3772779 42.90713297 73.38198853 46.94110107 C73.38745036 53.72021176 73.3802459 60.49922449 73.3659668 67.27832031 C73.34966573 75.10758094 73.35490846 82.93660689 73.37144601 90.76586175 C73.38508018 97.4904125 73.38697033 104.21489277 73.37913001 110.93945289 C73.37446069 114.95434647 73.37380764 118.96912997 73.38373947 122.98401642 C73.39243405 126.76304096 73.38634207 130.54176471 73.3690567 134.32075691 C73.36510397 135.70461338 73.36620507 137.08849535 73.3728447 138.47234154 C73.43040161 151.6920505 73.43040161 151.6920505 69.97485352 157.48583984 C67.3018736 158.8223298 65.25760152 158.61788614 62.26322937 158.62628174 C61.0476535 158.63199188 59.83207764 158.63770203 58.57966614 158.64358521 C57.22531138 158.64483062 55.87095651 158.64595571 54.51660156 158.64697266 C53.09586457 158.65159999 51.67512882 158.65662453 50.25439453 158.66201782 C46.38859853 158.67515286 42.52281991 158.68158903 38.65700507 158.68602848 C36.24246788 158.68895769 33.82793545 158.69306223 31.41340065 158.69753265 C23.86087302 158.71121107 16.30835627 158.72087579 8.75581712 158.72473454 C0.03397075 158.729215 -8.68771888 158.74676079 -17.40951759 158.77573514 C-24.14843706 158.79734593 -30.88731242 158.80743852 -37.62626618 158.80877566 C-41.65231133 158.80982422 -45.67820921 158.81574242 -49.70421791 158.83359528 C-53.49221882 158.85006542 -57.2799616 158.85223673 -61.06798553 158.84345627 C-62.45753101 158.84268529 -63.8470903 158.84703661 -65.23660088 158.85691452 C-67.13521559 158.86961884 -69.03393384 158.861971 -70.93257141 158.85333252 C-72.5256813 158.85553236 -72.5256813 158.85553236 -74.15097523 158.85777664 C-77.75213081 158.39176326 -80.43967813 157.0713082 -83.02514648 154.48583984 C-83.13602352 152.13428048 -83.18252653 149.81180637 -83.1862793 147.45922852 C-83.1912442 146.7242363 -83.19620911 145.98924408 -83.20132446 145.23197937 C-83.21598417 142.7892464 -83.22275503 140.34657841 -83.22827148 137.90380859 C-83.23402064 136.21088152 -83.2397784 134.51795448 -83.24554443 132.82502747 C-83.25606583 129.26982315 -83.26190075 125.71464153 -83.26538086 122.15942383 C-83.27086228 117.60283875 -83.29487784 113.04655301 -83.32335281 108.49006176 C-83.34197535 104.99077988 -83.34718463 101.49157007 -83.34871674 97.99224281 C-83.35174562 96.31250691 -83.35978212 94.63277234 -83.37290192 92.95308495 C-83.38995171 90.60203692 -83.38808487 88.25171948 -83.3815918 85.90063477 C-83.39080658 85.20593079 -83.40002136 84.51122681 -83.40951538 83.79547119 C-83.38455074 80.91074622 -83.11824579 78.69312943 -81.9315033 76.05079651 C-79.06592196 73.69839816 -76.83626435 74.00576113 -73.16699219 74.03173828 C-72.4740506 74.03115417 -71.78110901 74.03057007 -71.06716919 74.02996826 C-68.77791149 74.03275392 -66.48995777 74.0638658 -64.20092773 74.09521484 C-62.61338513 74.10267559 -61.02583331 74.10836931 -59.4382782 74.11236572 C-55.26067662 74.12763535 -51.0836317 74.16692803 -46.90625 74.21118164 C-42.64322439 74.25210604 -38.3801088 74.27037065 -34.11694336 74.29052734 C-25.75275567 74.33342152 -17.38902033 74.40168828 -9.02514648 74.48583984 C-9.03513924 73.18371552 -9.03513924 73.18371552 -9.04533386 71.85528564 C-9.10544524 63.67438525 -9.15112102 55.49355903 -9.180583 47.31248856 C-9.19623892 43.1065046 -9.21747568 38.90070314 -9.25146484 34.69482422 C-9.28406119 30.63589433 -9.30200006 26.57713997 -9.30977821 22.51808929 C-9.31532125 20.96952298 -9.32614549 19.42096626 -9.34233665 17.87247467 C-9.36411519 15.70334616 -9.36711333 13.53494291 -9.36572266 11.36572266 C-9.37571541 9.5137326 -9.37571541 9.5137326 -9.38591003 7.62432861 C-8.64917877 1.21508137 -6.18460352 -0.01611041 0 0 Z M-5.02514648 5.48583984 C-5.11954627 7.75575871 -5.14256875 10.02865952 -5.13867188 12.30053711 C-5.1388179 13.01269379 -5.13896393 13.72485046 -5.13911438 14.45858765 C-5.13841519 16.82317097 -5.13062254 19.18767646 -5.12280273 21.55224609 C-5.12093858 23.18749448 -5.11951466 24.82274341 -5.11851501 26.45799255 C-5.11468966 30.7701877 -5.10485923 35.08234937 -5.09381104 39.39453125 C-5.08359729 43.7914993 -5.07901747 48.18847274 -5.07397461 52.58544922 C-5.06323698 61.21892815 -5.04616035 69.85237984 -5.02514648 78.48583984 C-5.93747543 78.48361923 -6.84980438 78.48139862 -7.78977966 78.47911072 C-16.36897926 78.45911056 -24.94817107 78.44386712 -33.52738857 78.43402767 C-37.93851652 78.42879915 -42.34962528 78.42170207 -46.76074219 78.41040039 C-51.01415764 78.39957041 -55.26755457 78.39356277 -59.52098274 78.3909626 C-61.14736281 78.38910855 -62.77374182 78.38548832 -64.40011406 78.38010979 C-66.67024841 78.37289786 -68.94030534 78.37184896 -71.21044922 78.37231445 C-72.50506577 78.37009384 -73.79968231 78.36787323 -75.13352966 78.36558533 C-77.91957031 78.15455872 -77.91957031 78.15455872 -79.02514648 79.48583984 C-79.11954627 81.75575871 -79.14256875 84.02865952 -79.13867188 86.30053711 C-79.1388179 87.01269379 -79.13896393 87.72485046 -79.13911438 88.45858765 C-79.13841519 90.82317097 -79.13062254 93.18767646 -79.12280273 95.55224609 C-79.12093858 97.18749448 -79.11951466 98.82274341 -79.11851501 100.45799255 C-79.11468966 104.7701877 -79.10485923 109.08234937 -79.09381104 113.39453125 C-79.08359729 117.7914993 -79.07901747 122.18847274 -79.07397461 126.58544922 C-79.06323698 135.21892815 -79.04616035 143.85237984 -79.02514648 152.48583984 C-72.30934057 154.9654446 -65.79727569 154.7606279 -58.7019043 154.72875977 C-57.35600187 154.729834 -56.0100999 154.73177477 -54.66419983 154.73451233 C-51.02605303 154.73933944 -47.38802981 154.73173307 -43.74989796 154.72155929 C-39.93830833 154.71274909 -36.12672224 154.71453677 -32.31512451 154.71492004 C-25.91977887 154.71398509 -19.52448083 154.70532169 -13.12915039 154.69165039 C-5.73377515 154.6758998 1.66154809 154.67065331 9.05693889 154.67138594 C16.93484938 154.67206098 24.81273982 154.66512517 32.69064426 154.65593934 C34.96035653 154.65380753 37.23006557 154.65309811 39.49977875 154.65270042 C43.06206736 154.65169693 46.62431221 154.64559978 50.18658638 154.63553429 C52.11943743 154.6312147 54.05229745 154.63178121 55.9851532 154.63247681 C57.13190018 154.62821182 58.27864716 154.62394684 59.46014404 154.61955261 C60.45857204 154.61787677 61.45700005 154.61620092 62.48568344 154.6144743 C65.10709991 154.59000547 65.10709991 154.59000547 67.97485352 153.48583984 C68.95895364 145.61001656 69.12303295 137.82844419 69.12011719 129.89794922 C69.12311582 128.55983386 69.12651995 127.22171935 69.1302948 125.88360596 C69.13905749 122.28086826 69.14146934 118.67815436 69.14211059 115.07540703 C69.14282435 112.82299938 69.14496461 110.57059769 69.1476078 108.31819153 C69.15682849 100.45740375 69.16094593 92.59663285 69.16015625 84.73583984 C69.15955309 77.40909623 69.17015968 70.08242568 69.18589991 62.75570059 C69.19895227 56.45572866 69.20434127 50.15578074 69.20370084 43.85579538 C69.20344561 40.0966016 69.20631216 36.33747314 69.21687889 32.57829285 C69.22831159 28.398335 69.22382741 24.21854328 69.21777344 20.03857422 C69.22339294 18.78977478 69.22901245 17.54097534 69.23480225 16.2543335 C69.23060776 15.12171082 69.22641327 13.98908813 69.22209167 12.82214355 C69.22263644 11.83406456 69.22318121 10.84598557 69.22374249 9.82796478 C69.20261576 7.29465085 69.20261576 7.29465085 66.97485352 5.48583984 C53.97319946 3.32190655 40.09244839 4.33370526 26.97241211 4.35546875 C23.06042729 4.36089453 19.14855389 4.355463 15.23657227 4.34912109 C12.75610326 4.34978075 10.27563433 4.35105956 7.79516602 4.35302734 C6.03609421 4.349991 6.03609421 4.349991 4.2414856 4.34689331 C3.16881439 4.35004547 2.09614319 4.35319763 0.9909668 4.35644531 C-0.43008865 4.3576387 -0.43008865 4.3576387 -1.87985229 4.3588562 C-4.00716905 4.24649922 -4.00716905 4.24649922 -5.02514648 5.48583984 Z " fill="#202223" transform="translate(142.025146484375,61.51416015625)"/>
<path d="M0 0 C1.22355698 0.00222061 2.44711395 0.00444122 3.70774841 0.00672913 C4.71746201 0.00651009 4.71746201 0.00651009 5.74757385 0.00628662 C7.98229649 0.00698573 10.21693674 0.01477799 12.4516449 0.02259827 C13.99721226 0.02446245 15.54278022 0.02588635 17.08834839 0.02688599 C21.16380941 0.03071112 25.23923502 0.04054135 29.31468201 0.05158997 C33.47035747 0.0618042 37.62603864 0.06638363 41.78172302 0.07142639 C49.94124452 0.08216363 58.10073718 0.09923998 66.26023865 0.12025452 C67.52261596 2.64500913 67.35880269 4.43225917 67.32273865 7.24525452 C67.31371521 8.15533264 67.30469177 9.06541077 67.2953949 10.00306702 C67.28379333 10.70173889 67.27219177 11.40041077 67.26023865 12.12025452 C63.74494461 13.70322013 60.96653935 14.37785954 57.11863708 14.42323303 C56.12120483 14.43987503 55.12377258 14.45651703 54.09611511 14.47366333 C53.03136963 14.48207748 51.96662415 14.49049164 50.86961365 14.49916077 C49.76925781 14.51615524 48.66890198 14.53314972 47.53520203 14.55065918 C44.02693888 14.60372364 40.51868761 14.64407605 37.01023865 14.68275452 C33.48756596 14.72663208 29.96498639 14.77325111 26.44242859 14.82556152 C24.25121558 14.85761004 22.0599197 14.88447122 19.86857605 14.90579224 C18.88375244 14.91928207 17.89892883 14.93277191 16.88426208 14.94667053 C16.01331909 14.9561824 15.1423761 14.96569427 14.24504089 14.97549438 C12.25969329 14.90286725 12.25969329 14.90286725 11.26023865 16.12025452 C11.17454312 17.459762 11.15610374 18.80367988 11.16600037 20.14588928 C11.16864899 21.0009053 11.17129761 21.85592133 11.17402649 22.73684692 C11.18189682 24.13512978 11.18189682 24.13512978 11.18992615 25.56166077 C11.18133561 27.52716439 11.17085735 29.49266049 11.15867615 31.45814514 C11.14202879 34.56361252 11.13511261 37.66741554 11.16062927 40.77284241 C11.18169595 43.76598617 11.15825878 46.75615684 11.12742615 49.74916077 C11.14481842 50.66717972 11.16221069 51.58519867 11.18013 52.53103638 C11.04439537 59.85074707 8.38574066 63.1339975 3.26023865 68.12025452 C2.30894649 69.27570274 1.36989551 70.44142286 0.44773865 71.62025452 C-0.27413635 72.44525452 -0.99601135 73.27025452 -1.73976135 74.12025452 C-2.39976135 74.12025452 -3.05976135 74.12025452 -3.73976135 74.12025452 C-3.76288619 64.61951127 -3.78067716 55.11877764 -3.79157352 45.61801243 C-3.79680205 41.20688448 -3.80389913 36.79577572 -3.81520081 32.38465881 C-3.82603079 28.13124336 -3.83203842 23.87784643 -3.8346386 19.62441826 C-3.83649264 17.99803819 -3.84011287 16.37165918 -3.84549141 14.74528694 C-3.85270333 12.47515259 -3.85375223 10.20509567 -3.85328674 7.93495178 C-3.85550735 6.64033524 -3.85772797 5.34571869 -3.86001587 4.01187134 C-3.69992671 0.16239841 -3.69992671 0.16239841 0 0 Z " fill="#B5EEF0" transform="translate(66.73976135253906,139.87974548339844)"/>
<path d="M0 0 C1.0726712 -0.00315216 2.14534241 -0.00630432 3.2505188 -0.009552 C5.00959061 -0.00651566 5.00959061 -0.00651566 6.80419922 -0.00341797 C8.01018768 -0.00437469 9.21617615 -0.00533142 10.45870972 -0.00631714 C13.02618461 -0.00699993 15.5936612 -0.00513882 18.16113281 -0.00097656 C22.04349807 0.00430557 25.92574416 -0.00088417 29.80810547 -0.00732422 C41.90019511 -0.01025393 53.93669393 -0.01016971 65.98388672 1.12939453 C63.3280836 6.91185199 59.81999368 12.22626599 53.98388672 15.12939453 C46.48916033 16.90093835 38.56493773 16.3483467 30.92138672 16.19189453 C27.78897333 16.17628888 24.6567545 16.17433837 21.52430725 16.17344666 C19.58334726 16.16759474 17.64238163 16.15014697 15.7016449 16.12013245 C14.83306351 16.10780075 13.96448212 16.09546906 13.06958008 16.08276367 C12.30254257 16.0681459 11.53550507 16.05352814 10.745224 16.03846741 C8.95634991 15.93369422 8.95634991 15.93369422 7.98388672 17.12939453 C7.88200715 18.7093389 7.84819781 20.29373939 7.84204102 21.87695312 C7.83148933 23.39390274 7.83148933 23.39390274 7.82072449 24.9414978 C7.81656021 26.0424881 7.81239594 27.14347839 7.80810547 28.27783203 C7.78490981 30.58513285 7.76079258 32.89242455 7.73583984 35.19970703 C7.70067354 38.85601919 7.67135886 42.51199611 7.65795898 46.16845703 C7.64253358 49.68449978 7.60235675 53.19954971 7.55810547 56.71533203 C7.56001389 57.81227386 7.5619223 58.9092157 7.56388855 60.03939819 C7.54739761 61.05700226 7.53090668 62.07460632 7.51391602 63.12304688 C7.50804977 64.01937836 7.50218353 64.91570984 7.49613953 65.83920288 C6.98388672 68.12939453 6.98388672 68.12939453 5.24763489 69.93057251 C2.66025933 71.30077916 1.1367 71.44495982 -1.76611328 71.31689453 C-2.56533203 71.28982422 -3.36455078 71.26275391 -4.18798828 71.23486328 C-4.79126953 71.20005859 -5.39455078 71.16525391 -6.01611328 71.12939453 C-6.03923873 62.01980289 -6.0570294 52.91022128 -6.06792545 43.80060673 C-6.07315384 39.57108082 -6.08025068 35.34157493 -6.09155273 31.11206055 C-6.1023832 27.0337091 -6.10839045 22.95537696 -6.11099052 18.87701225 C-6.11284449 17.31761814 -6.11646455 15.75822513 -6.12184334 14.19883919 C-6.1290559 12.02210291 -6.13010413 9.84544739 -6.12963867 7.66870117 C-6.13185928 6.4273793 -6.1340799 5.18605743 -6.1363678 3.90711975 C-5.93397206 -0.76796235 -4.20437572 0.0035308 0 0 Z " fill="#B6EEF0" transform="translate(143.01611328125,65.87060546875)"/>
<path d="M0 0 C1.00988731 -0.00503792 1.00988731 -0.00503792 2.04017639 -0.01017761 C4.27851176 -0.01971909 6.51677248 -0.02163275 8.75512695 -0.02270508 C10.30874157 -0.02591701 11.86235588 -0.02928103 13.41596985 -0.03279114 C16.68031515 -0.03879149 19.94463395 -0.04063027 23.20898438 -0.04003906 C27.38417085 -0.03993775 31.55918609 -0.05355424 35.73433208 -0.07081127 C38.94717685 -0.08195641 42.15998067 -0.08395745 45.37284279 -0.08342934 C46.91136067 -0.08460704 48.44987969 -0.08901703 49.98837852 -0.0967617 C52.14731998 -0.10660614 54.30589587 -0.1036655 56.46484375 -0.09765625 C58.30564766 -0.09979378 58.30564766 -0.09979378 60.18363953 -0.10197449 C64.70903564 0.22980531 68.29420249 0.88355795 71.5559082 4.14526367 C71.8103838 6.63632488 71.8103838 6.63632488 71.81660461 9.84342957 C71.82368942 11.05611511 71.83077423 12.26880066 71.83807373 13.51823425 C71.83577965 14.86941565 71.83326991 16.2205967 71.83056641 17.57177734 C71.83491186 18.98927073 71.84009445 20.40676175 71.84605408 21.82424927 C71.85947846 25.68194216 71.86001858 29.53953728 71.85749078 33.39724898 C71.85642264 36.61768298 71.8613008 39.83809707 71.8660962 43.05852681 C71.87720488 50.65980117 71.87762223 58.26102613 71.87158203 65.86230469 C71.86555032 73.69891899 71.87782963 81.53535338 71.8991521 89.37193698 C71.91678592 96.10070508 71.92276635 102.82941603 71.91951436 109.55820638 C71.917703 113.57647893 71.9203222 117.59462338 71.9342289 121.61287498 C71.94683038 125.39597355 71.94484137 129.17879294 71.93181801 132.96188736 C71.92945709 134.34736158 71.93216952 135.73285557 71.94044113 137.11830711 C72.01184688 150.01281959 72.01184688 150.01281959 68.5559082 156.14526367 C58.08896006 156.16854315 47.62201819 156.18625773 37.15504932 156.19707584 C32.29362377 156.20227077 27.43221607 156.20930605 22.57080078 156.22070312 C17.8699444 156.23165348 13.16910508 156.23756598 8.46823692 156.24014091 C6.68431009 156.24197345 4.90038408 156.24555139 3.11646461 156.25099373 C-6.79473189 156.27999874 -16.57169559 156.12552179 -26.4440918 155.14526367 C-25.9490918 154.15526367 -25.9490918 154.15526367 -25.4440918 153.14526367 C4.9159082 152.81526367 35.2759082 152.48526367 66.5559082 152.14526367 C66.58502292 126.22046051 66.58502292 126.22046051 66.60473633 100.2956543 C66.61067959 89.72997556 66.617682 79.16430476 66.63134766 68.59863281 C66.64129371 60.90514302 66.64776144 53.21165966 66.6499967 45.51816362 C66.65130394 41.44196715 66.65439063 37.36578906 66.66163826 33.28959846 C66.66839724 29.45738612 66.67052542 25.62519984 66.66901588 21.7929821 C66.66929227 20.38241306 66.67129812 18.9718432 66.67511368 17.5612793 C66.68004895 15.64360678 66.67830622 13.72592046 66.67616272 11.8082428 C66.67708451 10.73251039 66.67800631 9.65677797 66.67895603 8.54844761 C66.82744451 6.19345872 66.82744451 6.19345872 65.5559082 5.14526367 C51.08817704 3.22032105 36.16829747 4.03424268 21.6184082 4.08276367 C18.98885176 4.08778841 16.35929439 4.09234959 13.72973633 4.09643555 C7.33843976 4.10736471 0.9471784 4.12402574 -5.4440918 4.14526367 C-5.7740918 4.80526367 -6.1040918 5.46526367 -6.4440918 6.14526367 C-7.1040918 6.14526367 -7.7640918 6.14526367 -8.4440918 6.14526367 C-7.29414178 -0.26160071 -6.49502469 0.02023972 0 0 Z " fill="#1A1B1C" transform="translate(143.444091796875,62.854736328125)"/>
<path d="M0 0 C0.33 0 0.66 0 1 0 C1.17218337 3.22889617 1.33665603 6.45814556 1.5 9.6875 C1.57154297 11.02651367 1.57154297 11.02651367 1.64453125 12.39257812 C2.2585406 24.71662297 1.96133181 36.98745974 1.5 49.3125 C1.45160953 50.65038292 1.40343145 51.98827355 1.35546875 53.32617188 C1.23905392 56.55086275 1.12053154 59.77546083 1 63 C1.66 63 2.32 63 3 63 C3 50.13 3 37.26 3 24 C3.33 24 3.66 24 4 24 C4.33 40.5 4.66 57 5 74 C8.93440811 74.65573468 12.19424676 75.13322679 16.08740234 75.20532227 C17.52821671 75.2352401 17.52821671 75.2352401 18.99813843 75.26576233 C20.01711212 75.28247482 21.03608582 75.29918732 22.0859375 75.31640625 C23.14285797 75.33718735 24.19977844 75.35796844 25.28872681 75.37937927 C28.65075445 75.44453991 32.01285737 75.50360361 35.375 75.5625 C37.6601639 75.60571708 39.94532031 75.64933238 42.23046875 75.69335938 C47.82023391 75.80018683 53.41007324 75.90201425 59 76 C59 76.33 59 76.66 59 77 C69.22324641 78.07825407 79.40478403 78.21529929 89.671875 78.31640625 C91.44834829 78.33702339 93.2248172 78.35802093 95.00128174 78.37937927 C99.63712986 78.43410924 104.27301857 78.48373119 108.90893555 78.53222656 C113.65547217 78.58280408 118.40195114 78.63829932 123.1484375 78.69335938 C132.43224221 78.800339 141.71609736 78.90191306 151 79 C151 79.33 151 79.66 151 80 C132.1807269 80.07007361 113.36148026 80.12298009 94.54210377 80.15543652 C85.80398511 80.17090699 77.0659475 80.19199995 68.32788086 80.22631836 C60.71199368 80.2562152 53.0961652 80.27557369 45.48022097 80.28226548 C41.44742644 80.28617727 37.41479983 80.29537419 33.3820591 80.31719017 C29.58589278 80.33755987 25.78996349 80.34383286 21.99374771 80.33932304 C20.60097274 80.34014803 19.2081898 80.34611097 17.81546211 80.35761642 C15.91237761 80.37256617 14.00916579 80.36716044 12.10603333 80.36076355 C11.04136243 80.36352893 9.97669153 80.36629431 8.87975788 80.36914349 C5.27378772 79.90691005 2.58841157 78.58841157 0 76 C-0.09494733 73.62699131 -0.12559319 71.28321297 -0.11352539 68.90991211 C-0.11367142 68.16849472 -0.11381744 67.42707733 -0.1139679 66.66319275 C-0.11326865 64.20121379 -0.10547574 61.73930957 -0.09765625 59.27734375 C-0.09579211 57.57483461 -0.09436819 55.87232493 -0.09336853 54.16981506 C-0.08954302 49.68006927 -0.07971247 45.19035562 -0.06866455 40.70062256 C-0.05845113 36.12268509 -0.05387106 31.54474244 -0.04882812 26.96679688 C-0.03809022 17.97785043 -0.02101341 8.98892788 0 0 Z " fill="#4A4C4D" transform="translate(59,140)"/>
<path d="M0 0 C2.00033677 3.33670874 2.25697454 5.891168 2.265625 9.75390625 C2.26949219 11.40616211 2.26949219 11.40616211 2.2734375 13.09179688 C2.26570313 14.23712891 2.25796875 15.38246094 2.25 16.5625 C2.26160156 18.28629883 2.26160156 18.28629883 2.2734375 20.04492188 C2.27085937 21.14513672 2.26828125 22.24535156 2.265625 23.37890625 C2.26336914 24.3851001 2.26111328 25.39129395 2.25878906 26.42797852 C2 29 2 29 0 32 C-2.59504988 32.29199085 -4.9514368 32.38881731 -7.5480957 32.35644531 C-8.32729874 32.35848969 -9.10650177 32.36053406 -9.90931702 32.36264038 C-12.49837358 32.36565971 -15.08679972 32.3471199 -17.67578125 32.328125 C-19.48023827 32.32506591 -21.28469765 32.32319093 -23.0891571 32.32244873 C-26.88317833 32.31783656 -30.6769884 32.30338884 -34.47094727 32.28125 C-39.3011626 32.25318907 -44.13121013 32.24206108 -48.96149921 32.2375679 C-53.5954476 32.23236755 -58.22935515 32.21784202 -62.86328125 32.203125 C-63.73358789 32.20124428 -64.60389454 32.19936356 -65.50057411 32.19742584 C-75.38479934 32.16987522 -85.15439738 31.95966894 -95 31 C-94.67 30.34 -94.34 29.68 -94 29 C-63.64 28.67 -33.28 28.34 -2 28 C-2 24.7 -2 21.4 -2 18 C-1.71286761 14.77488797 -1.39524659 11.58504325 -1 8.375 C-0.90460938 7.56160156 -0.80921875 6.74820313 -0.7109375 5.91015625 C-0.47909478 3.93949309 -0.24030577 1.96964907 0 0 Z " fill="#0D1011" transform="translate(212,187)"/>
<path d="M0 0 C1.28110153 0.00030212 2.56220306 0.00060425 3.88212585 0.00091553 C5.2805544 0.02134218 6.67897661 0.04220616 8.07739258 0.06347656 C9.50799266 0.07093797 10.93860296 0.07663138 12.36921692 0.08062744 C16.13256098 0.09589199 19.89528641 0.13517981 23.65838623 0.17944336 C27.49914176 0.22037899 31.33999735 0.23863474 35.1809082 0.25878906 C42.71569528 0.30167419 50.24997284 0.36993428 57.78442383 0.45410156 C57.78442383 0.78410156 57.78442383 1.11410156 57.78442383 1.45410156 C36.99442383 1.78410156 16.20442383 2.11410156 -5.21557617 2.45410156 C-5.87557617 4.10410156 -6.53557617 5.75410156 -7.21557617 7.45410156 C-6.55557617 7.45410156 -5.89557617 7.45410156 -5.21557617 7.45410156 C-5.21557617 29.89410156 -5.21557617 52.33410156 -5.21557617 75.45410156 C-5.54557617 75.45410156 -5.87557617 75.45410156 -6.21557617 75.45410156 C-6.26456055 74.18953125 -6.31354492 72.92496094 -6.36401367 71.62207031 C-6.43904998 69.96189209 -6.51459744 68.30173692 -6.59057617 66.64160156 C-6.63698242 65.3915332 -6.63698242 65.3915332 -6.68432617 64.11621094 C-6.72299805 63.31376953 -6.76166992 62.51132813 -6.80151367 61.68457031 C-6.83293457 60.9461792 -6.86435547 60.20778809 -6.89672852 59.44702148 C-7.12392231 57.14060568 -7.12392231 57.14060568 -9.21557617 54.45410156 C-9.47627258 52.22206116 -9.47627258 52.22206116 -9.49023438 49.5871582 C-9.49976639 48.59925797 -9.5092984 47.61135773 -9.51911926 46.59352112 C-9.51820786 45.52786423 -9.51729645 44.46220734 -9.51635742 43.36425781 C-9.52064255 42.2681871 -9.52492767 41.17211639 -9.52934265 40.04283142 C-9.53508848 37.72362967 -9.53558436 35.4044099 -9.53125 33.08520508 C-9.52809167 29.53403002 -9.55154126 25.9836891 -9.5769043 22.43261719 C-9.57917739 20.18066512 -9.57988074 17.9287108 -9.57885742 15.67675781 C-9.58806717 14.61312515 -9.59727692 13.54949249 -9.60676575 12.45362854 C-9.60053696 11.46257614 -9.59430817 10.47152374 -9.58789062 9.45043945 C-9.58852005 8.58012589 -9.58914948 7.70981232 -9.58979797 6.81312561 C-8.63280585 0.78042674 -5.6847965 -0.04467424 0 0 Z " fill="#353839" transform="translate(142.215576171875,61.5458984375)"/>
<path d="M0 0 C0.66 0 1.32 0 2 0 C1.99476318 0.85754883 1.98952637 1.71509766 1.98413086 2.59863281 C1.96705848 5.78922273 1.95453495 8.97978931 1.94506836 12.17041016 C1.94004882 13.54964973 1.93323181 14.92888402 1.92456055 16.30810547 C1.9123908 18.29392183 1.90728367 20.27977749 1.90234375 22.265625 C1.89710693 23.45961914 1.89187012 24.65361328 1.88647461 25.88378906 C1.88186483 28.82857337 1.88186483 28.82857337 2.49900818 30.92803955 C3.02849316 33.11783966 3.1269427 35.01723251 3.12939453 37.26757812 C3.13254669 38.10365601 3.13569885 38.93973389 3.13894653 39.80114746 C3.1369223 40.7020813 3.13489807 41.60301514 3.1328125 42.53125 C3.13376923 43.47697876 3.13472595 44.42270752 3.13571167 45.39709473 C3.13639255 47.4077969 3.13454466 49.41850126 3.13037109 51.42919922 C3.12511663 54.43332204 3.13026895 57.43728869 3.13671875 60.44140625 C3.14129653 70.08181307 3.02553506 79.71126164 2.6171875 89.34375 C2.58682404 90.19014038 2.55646057 91.03653076 2.525177 91.90856934 C2.23708754 97.76291246 2.23708754 97.76291246 0 100 C0 67 0 34 0 0 Z " fill="#101314" transform="translate(212,70)"/>
<path d="M0 0 C0.33 0 0.66 0 1 0 C1.33 30.69 1.66 61.38 2 93 C2.33 86.4 2.66 79.8 3 73 C3.33 73 3.66 73 4 73 C4 94.12 4 115.24 4 137 C3.67 137 3.34 137 3 137 C2.505 126.605 2.505 126.605 2 116 C1.34 116.99 0.68 117.98 0 119 C0 79.73 0 40.46 0 0 Z " fill="#0B3039" transform="translate(211,75)"/>
<path d="M0 0 C0.33 0 0.66 0 1 0 C1.17218337 3.22889617 1.33665603 6.45814556 1.5 9.6875 C1.57154297 11.02651367 1.57154297 11.02651367 1.64453125 12.39257812 C2.2585406 24.71662297 1.96133181 36.98745974 1.5 49.3125 C1.45160953 50.65038292 1.40343145 51.98827355 1.35546875 53.32617188 C1.23905392 56.55086275 1.12053154 59.77546083 1 63 C1.66 63 2.32 63 3 63 C3 50.13 3 37.26 3 24 C3.33 24 3.66 24 4 24 C4.02537091 30.88679212 4.04287571 37.77357217 4.05493164 44.66040039 C4.05995801 47.00285289 4.06678008 49.34530225 4.07543945 51.68774414 C4.08757918 55.05616022 4.09324531 58.42453478 4.09765625 61.79296875 C4.10281754 62.83897751 4.10797882 63.88498627 4.11329651 64.96269226 C4.11337204 65.94333145 4.11344757 66.92397064 4.11352539 67.93432617 C4.115746 68.79370285 4.11796661 69.65307953 4.12025452 70.53849792 C3.99457736 73.11099661 3.56648426 75.49067271 3 78 C2.01 77.34 1.02 76.68 0 76 C-0.28672361 73.51574117 -0.3786773 71.28139108 -0.34057617 68.79638672 C-0.34101425 68.0548233 -0.34145233 67.31325989 -0.34190369 66.54922485 C-0.33980979 64.09244669 -0.31645125 61.63634678 -0.29296875 59.1796875 C-0.28737491 57.47861097 -0.28310381 55.77752962 -0.28010559 54.07644653 C-0.26864004 49.5948151 -0.23915835 45.11347441 -0.20599365 40.63195801 C-0.17532948 36.06066827 -0.16160809 31.48933165 -0.14648438 26.91796875 C-0.11429013 17.94518461 -0.06307329 8.97261646 0 0 Z " fill="#39393A" transform="translate(59,140)"/>
<path d="M0 0 C0.33 1.32 0.66 2.64 1 4 C-0.28627711 5.17260611 -1.57919783 6.3379283 -2.875 7.5 C-3.59429687 8.1496875 -4.31359375 8.799375 -5.0546875 9.46875 C-7 11 -7 11 -9 11 C-9.93985412 13.81956235 -10.13468672 15.57753651 -10.15821838 18.49882507 C-10.1680072 19.42009186 -10.17779602 20.34135864 -10.18788147 21.2905426 C-10.19363693 22.29898727 -10.1993924 23.30743195 -10.20532227 24.34643555 C-10.21522186 25.41001282 -10.22512146 26.47359009 -10.23532104 27.56939697 C-10.26695825 31.09181477 -10.29170235 34.61424606 -10.31640625 38.13671875 C-10.33697385 40.5762416 -10.35797027 43.01576088 -10.37937927 45.45527649 C-10.43461992 51.88157251 -10.48402046 58.3079008 -10.53222656 64.73425293 C-10.582427 71.28966143 -10.63812068 77.84502298 -10.69335938 84.40039062 C-10.80096534 97.26688671 -10.9025914 110.13342288 -11 123 C-11.33 123 -11.66 123 -12 123 C-12.28126401 108.73523801 -12.49158457 94.47091039 -12.62174606 80.20393753 C-12.68423579 73.57817324 -12.76891621 66.9542783 -12.90527344 60.32958984 C-13.03616952 53.92978454 -13.10751499 47.53177079 -13.13852692 41.13072968 C-13.16061048 38.69536902 -13.20373806 36.26010075 -13.26876068 33.82550812 C-13.80936593 12.73508965 -13.80936593 12.73508965 -7.62468338 5.98600388 C-5.20829995 3.74196449 -2.74105759 1.83546547 0 0 Z " fill="#1BBAC8" transform="translate(209,68)"/>
<path d="M0 0 C0.66 0 1.32 0 2 0 C2.19862294 20.67885499 1.59011611 41.33181096 1 62 C0.34 62 -0.32 62 -1 62 C-1.02314533 54.21151879 -1.04092629 46.4230456 -1.05181217 38.63453865 C-1.05703619 35.01822828 -1.06412515 31.40194139 -1.07543945 27.78564453 C-1.08628538 24.29731896 -1.09228047 20.80901602 -1.09487724 17.3206749 C-1.09763081 15.33862308 -1.1054401 13.3565804 -1.11329651 11.37454224 C-1.11337204 10.17344818 -1.11344757 8.97235413 -1.11352539 7.73486328 C-1.115746 6.67341095 -1.11796661 5.61195862 -1.12025452 4.51834106 C-1 2 -1 2 0 0 Z " fill="#131515" transform="translate(61,141)"/>
<path d="M0 0 C0.99 0 1.98 0 3 0 C3 6.93 3 13.86 3 21 C3.66 21 4.32 21 5 21 C4.67 22.32 4.34 23.64 4 25 C1.20743781 24.88638398 -1.58344118 24.7596411 -4.375 24.625 C-5.1690625 24.5940625 -5.963125 24.563125 -6.78125 24.53125 C-12.7734375 24.2265625 -12.7734375 24.2265625 -15 22 C-10.05 21.67 -5.1 21.34 0 21 C0 14.07 0 7.14 0 0 Z " fill="#151718" transform="translate(133,116)"/>
<path d="M0 0 C0.33 0 0.66 0 1 0 C1 21.12 1 42.24 1 64 C0.67 64 0.34 64 0 64 C-0.03758423 63.07719238 -0.03758423 63.07719238 -0.07592773 62.13574219 C-0.19218487 59.34029844 -0.31477642 56.54516702 -0.4375 53.75 C-0.47681641 52.78191406 -0.51613281 51.81382812 -0.55664062 50.81640625 C-0.59853516 49.88183594 -0.64042969 48.94726562 -0.68359375 47.984375 C-0.72025146 47.12553711 -0.75690918 46.26669922 -0.79467773 45.38183594 C-0.98768006 43.1429172 -1.45327234 41.17215638 -2 39 C-2.08771708 37.65577712 -2.13057323 36.30801747 -2.1328125 34.9609375 C-2.13410156 34.21585938 -2.13539063 33.47078125 -2.13671875 32.703125 C-2.13285156 31.93484375 -2.12898437 31.1665625 -2.125 30.375 C-2.12886719 29.59898437 -2.13273438 28.82296875 -2.13671875 28.0234375 C-2.12670133 22.25340266 -2.12670133 22.25340266 -1 20 C-0.84876169 18.4804236 -0.75118307 16.95527498 -0.68359375 15.4296875 C-0.64169922 14.53378906 -0.59980469 13.63789063 -0.55664062 12.71484375 C-0.49766602 11.30912109 -0.49766602 11.30912109 -0.4375 9.875 C-0.39431641 8.93011719 -0.35113281 7.98523438 -0.30664062 7.01171875 C-0.20040928 4.67462908 -0.09836824 2.3374317 0 0 Z " fill="#242526" transform="translate(214,148)"/>
<path d="M0 0 C1.11375 0.29648438 2.2275 0.59296875 3.375 0.8984375 C8.5571503 2.27494617 13.66200158 2.44829385 19 2.625 C19.96550781 2.66367188 20.93101563 2.70234375 21.92578125 2.7421875 C24.2836744 2.83556941 26.64157756 2.92134329 29 3 C29 3.99 29 4.98 29 6 C24.91668161 6.02903892 20.8333898 6.04681189 16.75 6.0625 C15.01169922 6.07506836 15.01169922 6.07506836 13.23828125 6.08789062 C12.12324219 6.09111328 11.00820312 6.09433594 9.859375 6.09765625 C8.31975098 6.10551147 8.31975098 6.10551147 6.74902344 6.11352539 C4.32374344 6.01336951 2.31302639 5.69923078 0 5 C-0.5625 3.0625 -0.5625 3.0625 -1 1 C-0.67 0.67 -0.34 0.34 0 0 Z " fill="#070A0B" transform="translate(62,213)"/>
<path d="M0 0 C2 2 2 2 2.22705078 5.53173828 C2.22673363 7.04463331 2.21540633 8.55755088 2.1953125 10.0703125 C2.1924826 10.86654022 2.18965271 11.66276794 2.18673706 12.48312378 C2.1755264 15.03056763 2.15042062 17.57766211 2.125 20.125 C2.11497133 21.85025535 2.10584528 23.57551619 2.09765625 25.30078125 C2.07558422 29.53398914 2.04104867 33.7669353 2 38 C-0.29771877 34.37697587 -0.16171042 31.48699754 0.0234375 27.265625 C0.075 25.97011719 0.1265625 24.67460938 0.1796875 23.33984375 C0.24455938 21.97655143 0.30966653 20.61327028 0.375 19.25 C0.43327558 17.87113498 0.49057808 16.49222847 0.546875 15.11328125 C0.68834178 11.74165628 0.83975828 8.37077634 1 5 C0.34 5 -0.32 5 -1 5 C-1 6.65 -1 8.3 -1 10 C-1.33 10 -1.66 10 -2 10 C-2.66 7.69 -3.32 5.38 -4 3 C-8.95 2.67 -13.9 2.34 -19 2 C-19 1.67 -19 1.34 -19 1 C-18.24074219 0.93941406 -17.48148438 0.87882812 -16.69921875 0.81640625 C-15.70535156 0.73261719 -14.71148437 0.64882812 -13.6875 0.5625 C-12.70136719 0.48128906 -11.71523437 0.40007812 -10.69921875 0.31640625 C-2.34869888 -0.66245353 -2.34869888 -0.66245353 0 0 Z " fill="#1C1F20" transform="translate(213,65)"/>
<path d="M0 0 C1.20970459 0.00523682 2.41940918 0.01047363 3.66577148 0.01586914 C4.97094727 0.0190918 6.27612305 0.02231445 7.62084961 0.02563477 C9.00952213 0.03399138 10.39819401 0.04245634 11.78686523 0.05102539 C13.17944179 0.05603873 14.57202005 0.06060193 15.96459961 0.06469727 C19.38456394 0.07653105 22.80444367 0.09301659 26.22436523 0.11352539 C26.22436523 0.77352539 26.22436523 1.43352539 26.22436523 2.11352539 C24.95991577 2.18869385 24.95991577 2.18869385 23.66992188 2.26538086 C20.5515457 2.45531303 17.43386743 2.65379288 14.31640625 2.8581543 C12.96538657 2.94493939 11.61414138 3.02828352 10.26269531 3.1081543 C8.3235823 3.22334913 6.38527261 3.35182663 4.44702148 3.48071289 C2.6953064 3.59068604 2.6953064 3.59068604 0.90820312 3.70288086 C-0.42029663 3.9061499 -0.42029663 3.9061499 -1.77563477 4.11352539 C-2.10563477 4.77352539 -2.43563477 5.43352539 -2.77563477 6.11352539 C-3.43563477 6.11352539 -4.09563477 6.11352539 -4.77563477 6.11352539 C-3.70553825 0.15155909 -3.70553825 0.15155909 0 0 Z " fill="#0F1111" transform="translate(139.775634765625,62.886474609375)"/>
<path d="M0 0 C0.33 0 0.66 0 1 0 C1.02537091 6.88679212 1.04287571 13.77357217 1.05493164 20.66040039 C1.05995801 23.00285289 1.06678008 25.34530225 1.07543945 27.68774414 C1.08757918 31.05616022 1.09324531 34.42453478 1.09765625 37.79296875 C1.10281754 38.83897751 1.10797882 39.88498627 1.11329651 40.96269226 C1.11337204 41.94333145 1.11344757 42.92397064 1.11352539 43.93432617 C1.115746 44.79370285 1.11796661 45.65307953 1.12025452 46.53849792 C0.99457736 49.11099661 0.56648426 51.49067271 0 54 C-0.66 53.67 -1.32 53.34 -2 53 C-2 48.38 -2 43.76 -2 39 C-1.34 39 -0.68 39 0 39 C0 26.13 0 13.26 0 0 Z " fill="#252828" transform="translate(62,164)"/>
<path d="M0 0 C2.64 0 5.28 0 8 0 C7.01 0.33 6.02 0.66 5 1 C5 1.66 5 2.32 5 3 C10.28 3 15.56 3 21 3 C21 3.33 21 3.66 21 4 C14.36144258 4.05064489 7.72293486 4.08571023 1.08422852 4.10986328 C-1.17490501 4.11993058 -3.43402547 4.13358538 -5.69311523 4.15087891 C-8.93736999 4.17509508 -12.18145271 4.18647575 -15.42578125 4.1953125 C-16.43836502 4.20563507 -17.45094879 4.21595764 -18.49421692 4.22659302 C-19.43496567 4.22674408 -20.37571442 4.22689514 -21.3449707 4.22705078 C-22.17325882 4.231492 -23.00154694 4.23593323 -23.85493469 4.24050903 C-26 4 -26 4 -29 2 C-19.43 2.33 -9.86 2.66 0 3 C0 2.01 0 1.02 0 0 Z " fill="#3F4243" transform="translate(91,216)"/>
<path d="M0 0 C0.99 0 1.98 0 3 0 C3 6.6 3 13.2 3 20 C2.01 20 1.02 20 0 20 C0 13.4 0 6.8 0 0 Z " fill="#1D1E1F" transform="translate(133,116)"/>
<path d="M0 0 C0.73839111 0.01571045 1.47678223 0.0314209 2.23754883 0.04760742 C3.03999023 0.05727539 3.84243164 0.06694336 4.66918945 0.0769043 C5.50256836 0.10204102 6.33594727 0.12717773 7.19458008 0.15307617 C8.46205078 0.17337891 8.46205078 0.17337891 9.75512695 0.1940918 C11.83938392 0.22941819 13.92331285 0.28322478 16.00708008 0.34057617 C16.00708008 0.67057617 16.00708008 1.00057617 16.00708008 1.34057617 C13.36708008 1.67057617 10.72708008 2.00057617 8.00708008 2.34057617 C8.00708008 2.67057617 8.00708008 3.00057617 8.00708008 3.34057617 C3.71708008 3.34057617 -0.57291992 3.34057617 -4.99291992 3.34057617 C-1.99291992 0.34057617 -1.99291992 0.34057617 0 0 Z " fill="#1C1E20" transform="translate(111.992919921875,136.659423828125)"/>
<path d="M0 0 C0.66 0 1.32 0 2 0 C0.55575365 3.23861303 -1.25772247 5.61969163 -3.625 8.25 C-4.25664063 8.95640625 -4.88828125 9.6628125 -5.5390625 10.390625 C-6.02117187 10.92171875 -6.50328125 11.4528125 -7 12 C-7.99 11.67 -8.98 11.34 -10 11 C-8.52116808 9.35386588 -7.04192523 7.70810092 -5.5625 6.0625 C-4.73878906 5.14597656 -3.91507812 4.22945312 -3.06640625 3.28515625 C-1 1 -1 1 0 0 Z " fill="#26C9D4" transform="translate(75,202)"/>
<path d="M0 0 C0 0.99 0 1.98 0 3 C-5.28 3 -10.56 3 -16 3 C-16 2.67 -16 2.34 -16 2 C-10.60539047 -0.27141454 -5.73842251 -0.20413361 0 0 Z " fill="#0D1011" transform="translate(91,216)"/>
<path d="M0 0 C0.33 0 0.66 0 1 0 C2.33257403 14.78132118 2.33257403 14.78132118 1 21 C0.34 21 -0.32 21 -1 21 C-1.02719556 18.62492145 -1.04693247 16.25016036 -1.0625 13.875 C-1.07087891 13.20984375 -1.07925781 12.5446875 -1.08789062 11.859375 C-1.10782292 7.79318646 -0.78890161 3.9879908 0 0 Z " fill="#0B0D0E" transform="translate(213,124)"/>
<path d="M0 0 C0.33 1.32 0.66 2.64 1 4 C-2.3 6.64 -5.6 9.28 -9 12 C-9.66 11.67 -10.32 11.34 -11 11 C-7.37 7.37 -3.74 3.74 0 0 Z " fill="#25CAD5" transform="translate(209,68)"/>
<path d="M0 0 C0.66 0 1.32 0 2 0 C1.67 4.29 1.34 8.58 1 13 C0.34 13 -0.32 13 -1 13 C-1.02696365 11.20841511 -1.04637917 9.41671527 -1.0625 7.625 C-1.07410156 6.62726563 -1.08570313 5.62953125 -1.09765625 4.6015625 C-1 2 -1 2 0 0 Z " fill="#0E1011" transform="translate(61,141)"/>
<path d="M0 0 C1.32 0.66 2.64 1.32 4 2 C3.67 3.32 3.34 4.64 3 6 C1.35 5.67 -0.3 5.34 -2 5 C-2 2 -2 2 0 0 Z " fill="#0A1316" transform="translate(134,135)"/>
<path d="M0 0 C-0.33 0.66 -0.66 1.32 -1 2 C-3.97 2 -6.94 2 -10 2 C-10 1.01 -10 0.02 -10 -1 C-6.18510326 -2.46726798 -3.70988378 -1.43336419 0 0 Z " fill="#1B1F20" transform="translate(213,217)"/>
<path d="M0 0 C0.66 0.33 1.32 0.66 2 1 C1.34 2.65 0.68 4.3 0 6 C0.66 6 1.32 6 2 6 C1.67 7.32 1.34 8.64 1 10 C1 9.34 1 8.68 1 8 C0.34 8 -0.32 8 -1 8 C-1.33 8.99 -1.66 9.98 -2 11 C-2.25 3.375 -2.25 3.375 0 0 Z " fill="#2F3031" transform="translate(135,63)"/>
<path d="M0 0 C5.75 1.875 5.75 1.875 8 3 C8 3.66 8 4.32 8 5 C8.66 5 9.32 5 10 5 C9.67 5.66 9.34 6.32 9 7 C6.03 5.35 3.06 3.7 0 2 C0 1.34 0 0.68 0 0 Z " fill="#EDEBEB" transform="translate(48,70)"/>
<path d="M0 0 C0.33 0 0.66 0 1 0 C1 3.63 1 7.26 1 11 C0.01 11.33 -0.98 11.66 -2 12 C-2 10.35 -2 8.7 -2 7 C-1.34 7 -0.68 7 0 7 C0 4.69 0 2.38 0 0 Z " fill="#191B1B" transform="translate(62,147)"/>
</svg>
